<svg xmlns="http://www.w3.org/2000/svg" width="44" height="40" viewBox="0 0 44 40" fill="none">
  <mask id="mask0_167_185" style="mask-type:luminance" maskUnits="userSpaceOnUse" x="4" y="0" width="37" height="10">
    <path d="M4.00281 0.802643H40.495V9.74681H4.00281V0.802643Z" fill="white"/>
  </mask>
  <g mask="url(#mask0_167_185)">
    <path d="M22.2517 8.98936C16.8461 8.98936 12.4485 13.3832 12.4485 18.7832C12.4485 24.1842 16.8461 28.578 22.2517 28.578C27.6573 28.578 32.0558 24.1842 32.0558 18.7832C32.0558 13.3832 27.6573 8.98936 22.2517 8.98936ZM22.2517 29.6057C16.2787 29.6057 11.42 24.7507 11.42 18.7832C11.42 12.8167 16.2787 7.96171 22.2517 7.96171C28.2247 7.96171 33.0844 12.8167 33.0844 18.7832C33.0844 24.7507 28.2247 29.6057 22.2517 29.6057ZM24.3247 33.2877L25.8052 35.6141C27.0014 35.3635 28.166 34.9861 29.2747 34.4905L29.1033 31.7392L29.3865 31.5818C30.4067 31.0125 31.3608 30.3203 32.2198 29.5237L32.4574 29.3038L35.0223 30.3147C35.8459 29.4053 36.5689 28.4159 37.1754 27.365L35.4192 25.237L35.5552 24.9444C36.0499 23.8795 36.4142 22.7596 36.6388 21.6165L36.7012 21.2988L39.3686 20.6093C39.4366 19.9804 39.4702 19.3804 39.4702 18.7832C39.4702 18.1869 39.4366 17.5869 39.3686 16.958L36.7012 16.2695L36.6388 15.9518C36.4142 14.8068 36.0499 13.6869 35.5562 12.6239L35.4192 12.3294L37.1754 10.2024C36.5689 9.15147 35.8459 8.16202 35.0223 7.2527L32.4574 8.26358L32.2198 8.0437C31.3617 7.24804 30.4086 6.55487 29.3865 5.98561L29.1042 5.82815L29.2747 3.07689C28.166 2.58123 27.0014 2.2039 25.8061 1.95328L24.3247 4.27969L24.0033 4.2415C23.4033 4.16976 22.8135 4.13435 22.2517 4.13435C21.6825 4.13435 21.1095 4.16882 20.5001 4.2415L20.1787 4.27969L18.6973 1.95328C17.502 2.2039 16.3383 2.58123 15.2287 3.07689L15.4001 5.82815L15.1169 5.98561C14.0958 6.55487 13.1426 7.24711 12.2836 8.0437L12.046 8.26358L9.48112 7.2527C8.65751 8.16202 7.93546 9.15147 7.328 10.2024L9.08422 12.3294L8.9482 12.6239C8.45347 13.6869 8.08919 14.8068 7.86465 15.9518L7.80223 16.2695L5.13482 16.958C5.06773 17.5813 5.03419 18.1944 5.03419 18.7832C5.03419 19.373 5.06773 19.986 5.13482 20.6093L7.80223 21.2978L7.86465 21.6155C8.08919 22.7606 8.45347 23.8805 8.9482 24.9435L9.08422 25.237L7.328 27.365C7.93546 28.4159 8.65751 29.4053 9.48112 30.3147L12.046 29.3038L12.2836 29.5237C13.1426 30.3203 14.0958 31.0125 15.1169 31.5818L15.4001 31.7392L15.2287 34.4905C16.3374 34.9861 17.5011 35.3635 18.6973 35.6141L20.1787 33.2877L20.5001 33.3259C21.7188 33.4703 22.7837 33.4703 24.0033 33.3259L24.3247 33.2877ZM19.1893 36.7563L18.8473 36.6911C17.3306 36.4051 15.8594 35.929 14.474 35.2759L14.1591 35.1268L14.3333 32.3178C13.4408 31.7951 12.5985 31.1839 11.8243 30.4954L9.20721 31.5277L8.96776 31.2734C7.90658 30.1479 6.99353 28.8976 6.25656 27.5578L6.08793 27.2522L7.88049 25.0805C7.46309 24.1302 7.14166 23.1416 6.92179 22.1326L4.19847 21.4292L4.15468 21.0835C4.05593 20.2981 4.00562 19.5248 4.00562 18.7832C4.00562 18.0425 4.05593 17.2702 4.15468 16.4838L4.19847 16.1382L6.92179 15.4347C7.14166 14.4257 7.46309 13.4372 7.88049 12.4869L6.08793 10.3151L6.25656 10.0096C6.99353 8.66979 7.90658 7.41947 8.96776 6.29306L9.20721 6.03965L11.8243 7.07102C12.5985 6.38344 13.4398 5.77225 14.3333 5.24958L14.1591 2.44055L14.474 2.29148C15.8604 1.63837 17.3315 1.16228 18.8473 0.876253L19.1893 0.811035L20.7014 3.1859C21.2334 3.13186 21.743 3.1067 22.2517 3.1067C22.752 3.1067 23.2728 3.13372 23.802 3.1859L25.3142 0.811035L25.657 0.876253C27.1719 1.16228 28.644 1.63837 30.0294 2.29148L30.3452 2.44055L30.1701 5.24958C31.0636 5.77318 31.9049 6.38344 32.6791 7.07195L35.2971 6.03965L35.5357 6.29399C36.5978 7.4204 37.5099 8.67072 38.2478 10.0096L38.4155 10.3151L36.6229 12.4869C37.0403 13.4372 37.3618 14.4257 37.5826 15.4347L40.305 16.1382L40.3497 16.4848C40.4494 17.2832 40.4987 18.0351 40.4987 18.7832C40.4987 19.5314 40.4494 20.2842 40.3497 21.0835L40.305 21.4292L37.5826 22.1326C37.3627 23.1407 37.0403 24.1302 36.622 25.0805L38.4146 27.2522L38.2469 27.5578C37.5099 28.8976 36.5978 30.1479 35.5357 31.2743L35.2971 31.5277L32.6782 30.4954C31.904 31.1839 31.0626 31.7951 30.1701 32.3178L30.3452 35.1268L30.0294 35.2759C28.644 35.929 27.1719 36.4051 25.6561 36.6911L25.3132 36.7563L23.802 34.3815C22.7371 34.4877 21.7654 34.4877 20.7014 34.3815L19.1893 36.7563Z" fill="#FFBF00"/>
  </g>
  <mask id="mask1_167_185" style="mask-type:luminance" maskUnits="userSpaceOnUse" x="4" y="30" width="37" height="10">
    <path d="M4.43698 30.432H40.0348V39.1973H4.43698V30.432Z" fill="white"/>
  </mask>
  <g mask="url(#mask1_167_185)">
    <path d="M22.2387 31.1765C16.9653 31.1765 12.6759 26.8702 12.6759 21.5773C12.6759 16.2844 16.9653 11.9782 22.2387 11.9782C27.512 11.9782 31.8024 16.2844 31.8024 21.5773C31.8024 26.8702 27.512 31.1765 22.2387 31.1765ZM22.2387 10.971C16.4119 10.971 11.6725 15.7291 11.6725 21.5773C11.6725 27.4255 16.4119 32.1836 22.2387 32.1836C28.0654 32.1836 32.8058 27.4255 32.8058 21.5773C32.8058 15.7291 28.0654 10.971 22.2387 10.971ZM24.2614 7.36355L25.7055 5.08279C26.8719 5.32875 28.0077 5.6977 29.0893 6.18404L28.9226 8.88033L29.1984 9.03499C30.1943 9.59307 31.1241 10.2713 31.9627 11.0512L32.1937 11.2673L34.6962 10.276C35.4993 11.1676 36.2046 12.1375 36.7962 13.167L35.0838 15.2521L35.2161 15.54C35.6987 16.5835 36.0546 17.681 36.2726 18.8018L36.3341 19.113L38.9363 19.7876C39.0025 20.4043 39.0351 20.9922 39.0351 21.5773C39.0351 22.1624 39.0025 22.7503 38.9363 23.3671L36.3341 24.0416L36.2726 24.3528C36.0546 25.4755 35.6987 26.573 35.2161 27.6146L35.0838 27.9025L36.7962 29.9867C36.2046 31.0171 35.4993 31.987 34.6962 32.8786L32.1937 31.8873L31.9627 32.1035C31.1251 32.8833 30.1953 33.5616 29.1984 34.1196L28.9235 34.2743L29.0903 36.9715C28.0077 37.4569 26.8719 37.8259 25.7055 38.0718L24.2614 35.792L23.9474 35.8293C23.3614 35.8992 22.7865 35.9346 22.2387 35.9346C21.6834 35.9346 21.1244 35.9001 20.53 35.8293L20.216 35.792L18.7719 38.0718C17.6054 37.8259 16.4697 37.4569 15.388 36.9715L15.5548 34.2743L15.279 34.1196C14.2821 33.5616 13.3523 32.8833 12.5147 32.1035L12.2827 31.8873L9.78113 32.8786C8.97802 31.987 8.27274 31.0171 7.68112 29.9876L9.39355 27.9025L9.26125 27.6146C8.77864 26.573 8.42367 25.4755 8.20472 24.3528L8.14323 24.0416L5.54104 23.3671C5.47582 22.7559 5.44321 22.155 5.44321 21.5773C5.44321 20.9997 5.47582 20.3997 5.54104 19.7876L8.14323 19.1139L8.20472 18.8018C8.42367 17.6792 8.77864 16.5826 9.26125 15.54L9.39355 15.2521L7.68112 13.167C8.27274 12.1375 8.97802 11.1676 9.78113 10.276L12.2827 11.2673L12.5147 11.0512C13.3523 10.2713 14.283 9.59307 15.279 9.03499L15.5548 8.88033L15.388 6.18404C16.4697 5.6977 17.6045 5.32875 18.7719 5.08279L20.216 7.36355L20.53 7.32535C21.7188 7.18374 22.7567 7.18374 23.9474 7.32535L24.2614 7.36355ZM19.2517 3.96384L18.9172 4.02719C17.4386 4.30763 16.0029 4.7744 14.651 5.41447L14.3436 5.56074L14.5141 8.31387C13.643 8.82536 12.8221 9.42444 12.0666 10.099L9.51374 9.0881L9.27989 9.33686C8.24479 10.44 7.35503 11.6651 6.63484 12.9788L6.47086 13.2779L8.21963 15.4068C7.81248 16.3375 7.49851 17.3065 7.28422 18.2959L4.62799 18.9844L4.58513 19.3236C4.48824 20.0931 4.43979 20.8515 4.43979 21.5773C4.43979 22.3031 4.48824 23.0615 4.58513 23.8311L4.62799 24.1702L7.28422 24.8596C7.49851 25.8482 7.81248 26.8171 8.21963 27.7488L6.47086 29.8777L6.63484 30.1768C7.35503 31.4895 8.24479 32.7147 9.27989 33.8187L9.51374 34.0675L12.0666 33.0557C12.8221 33.7302 13.643 34.3293 14.5141 34.8408L14.3436 37.5948L14.651 37.7402C16.0038 38.3802 17.4386 38.8479 18.9172 39.1274L19.2517 39.1908L20.7266 36.8635C21.2455 36.9166 21.743 36.9417 22.2387 36.9417C22.7269 36.9417 23.2346 36.9147 23.7508 36.8635L25.2257 39.1908L25.5601 39.1274C27.0387 38.8479 28.4735 38.3802 29.8263 37.7402L30.1338 37.5939L29.9633 34.8408C30.8344 34.3283 31.6552 33.7302 32.4099 33.0557L34.9636 34.0675L35.1975 33.8187C36.2326 32.7147 37.1233 31.4886 37.8425 30.1768L38.0065 29.8768L36.2577 27.7488C36.6649 26.8171 36.9779 25.8482 37.1931 24.8596L39.8494 24.1702L39.8922 23.8311C39.9901 23.0475 40.0385 22.3106 40.0385 21.5773C40.0385 20.845 39.9901 20.1071 39.8922 19.3236L39.8494 18.9844L37.1931 18.2959C36.9788 17.3074 36.6649 16.3375 36.2568 15.4068L38.0056 13.2779L37.8416 12.9788C37.1223 11.6651 36.2326 10.44 35.1965 9.33593L34.9636 9.0881L32.4099 10.099C31.6543 9.42444 30.8335 8.82536 29.9623 8.31387L30.1338 5.56074L29.8254 5.41447C28.4735 4.7744 27.0387 4.30763 25.5601 4.02719L25.2257 3.96384L23.7508 6.29118C22.712 6.18683 21.7635 6.18683 20.7266 6.29118L19.2517 3.96384Z" fill="white"/>
  </g>
  <path d="M5.02338 25.7443V14.9554H6.80848V25.7443H5.02338ZM8.58241 20.5045L12.3278 25.7443H10.293L7.41221 21.4995V19.3641L10.0321 14.9554H12.0371L8.58241 20.5045Z" fill="white"/>
  <path d="M12.6933 20.2995C12.6933 19.4302 12.7976 18.6616 13.0063 17.9926C13.2169 17.3246 13.5104 16.7591 13.8859 16.2969C14.2632 15.833 14.7076 15.4761 15.22 15.2274C15.7315 14.9795 16.2905 14.8351 16.8971 14.7951V16.2597C16.5635 16.2997 16.2505 16.4032 15.9579 16.569C15.6644 16.733 15.411 16.9771 15.1977 17.2994C14.9834 17.6199 14.8138 18.0299 14.6871 18.5293C14.5604 19.0268 14.4914 19.6165 14.4821 20.2995C14.4914 20.9926 14.5604 21.5852 14.6871 22.0771C14.8138 22.569 14.9862 22.9818 15.2051 23.3144C15.4231 23.6479 15.6793 23.8995 15.9728 24.0709C16.2654 24.2405 16.5738 24.3392 16.8971 24.3691V25.8188C16.3008 25.7787 15.7436 25.6352 15.2275 25.3865C14.7104 25.1386 14.2632 24.7818 13.8859 24.3169C13.5104 23.8529 13.2169 23.2836 13.0063 22.61C12.7976 21.9374 12.6933 21.1669 12.6933 20.2995ZM17.4822 14.7951C18.0756 14.8249 18.6281 14.9665 19.1406 15.2199C19.6548 15.4733 20.0993 15.833 20.4747 16.2969C20.8493 16.7591 21.1437 17.3246 21.358 17.9926C21.5741 18.6616 21.6822 19.4302 21.6822 20.2995C21.6822 21.1669 21.5741 21.9374 21.358 22.61C21.1437 23.2836 20.8493 23.8529 20.4747 24.3169C20.0993 24.7818 19.6567 25.1386 19.148 25.3865C18.6412 25.6352 18.0859 25.7787 17.4822 25.8188V24.3691C17.812 24.3299 18.1241 24.2256 18.4176 24.056C18.7101 23.8846 18.9635 23.6349 19.1778 23.3069C19.394 22.979 19.5654 22.569 19.6921 22.0771C19.8188 21.5852 19.8868 20.9926 19.8971 20.2995C19.8868 19.6063 19.8188 19.0137 19.6921 18.5218C19.5654 18.028 19.3912 17.6181 19.1704 17.292C18.9514 16.964 18.6952 16.7162 18.4027 16.5466C18.1092 16.3752 17.8027 16.2746 17.4822 16.2448V14.7951Z" fill="white"/>
  <path d="M24.0966 25.7443H22.3115V14.9554H24.0966V25.7443Z" fill="white"/>
  <path d="M24.6967 20.2995C24.6967 19.4302 24.801 18.6616 25.0097 17.9926C25.2203 17.3246 25.5137 16.7591 25.8892 16.2969C26.2665 15.833 26.711 15.4761 27.2234 15.2274C27.7349 14.9795 28.2939 14.8351 28.9004 14.7951V16.2597C28.5669 16.2997 28.2538 16.4032 27.9613 16.569C27.6678 16.733 27.4144 16.9771 27.201 17.2994C26.9867 17.6199 26.8172 18.0299 26.6905 18.5293C26.5637 19.0268 26.4948 19.6165 26.4855 20.2995C26.4948 20.9926 26.5637 21.5852 26.6905 22.0771C26.8172 22.569 26.9895 22.9818 27.2085 23.3144C27.4265 23.6479 27.6827 23.8995 27.9762 24.0709C28.2687 24.2405 28.5771 24.3392 28.9004 24.3691V25.8188C28.3041 25.7787 27.747 25.6352 27.2308 25.3865C26.7138 25.1386 26.2665 24.7818 25.8892 24.3169C25.5137 23.8529 25.2203 23.2836 25.0097 22.61C24.801 21.9374 24.6967 21.1669 24.6967 20.2995ZM29.4855 14.7951C30.079 14.8249 30.6315 14.9665 31.1439 15.2199C31.6582 15.4733 32.1026 15.833 32.4781 16.2969C32.8526 16.7591 33.147 17.3246 33.3613 17.9926C33.5775 18.6616 33.6855 19.4302 33.6855 20.2995C33.6855 21.1669 33.5775 21.9374 33.3613 22.61C33.147 23.2836 32.8526 23.8529 32.4781 24.3169C32.1026 24.7818 31.6601 25.1386 31.1514 25.3865C30.6445 25.6352 30.0892 25.7787 29.4855 25.8188V24.3691C29.8153 24.3299 30.1274 24.2256 30.4209 24.056C30.7135 23.8846 30.9669 23.6349 31.1812 23.3069C31.3973 22.979 31.5688 22.569 31.6955 22.0771C31.8222 21.5852 31.8902 20.9926 31.9004 20.2995C31.8902 19.6063 31.8222 19.0137 31.6955 18.5218C31.5688 18.028 31.3945 17.6181 31.1737 17.292C30.9548 16.964 30.6986 16.7162 30.406 16.5466C30.1125 16.3752 29.806 16.2746 29.4855 16.2448V14.7951Z" fill="white"/>
  <path d="M39.2491 16.6249C39.1988 16.6054 39.1392 16.5718 39.0702 16.5243C39.0031 16.4749 38.9062 16.4293 38.7795 16.3864C38.6528 16.3417 38.4907 16.3044 38.2951 16.2746C38.1013 16.2448 37.8525 16.2401 37.5497 16.2597V14.7802C37.9792 14.7904 38.4153 14.8379 38.8578 14.9218C39.3022 15.0038 39.6609 15.1333 39.9348 15.3094C39.8771 15.4361 39.8091 15.5758 39.7299 15.7268C39.6525 15.8758 39.5789 16.0165 39.51 16.1479C39.4429 16.2802 39.3842 16.3901 39.3348 16.4796C39.2873 16.5672 39.2584 16.6156 39.2491 16.6249ZM34.1994 17.7951C34.1994 17.3656 34.2721 16.9808 34.4193 16.6398C34.5655 16.297 34.7631 15.997 35.0118 15.738C35.2596 15.4799 35.5522 15.2758 35.8876 15.1268C36.2249 14.9758 36.5789 14.8752 36.9497 14.8249V16.3603C36.6385 16.4703 36.3805 16.6585 36.1746 16.9268C35.9705 17.1951 35.869 17.4662 35.869 17.7392C35.869 18.1193 35.9705 18.4268 36.1746 18.6597C36.3805 18.8936 36.6385 19.0985 36.9497 19.2746V20.9442C36.6292 20.7877 36.3069 20.62 35.9845 20.4411C35.6612 20.2603 35.3677 20.0479 35.105 19.8038C34.8413 19.5579 34.6242 19.2746 34.4528 18.9541C34.2832 18.6318 34.1994 18.2451 34.1994 17.7951ZM34.4342 23.7691C34.5702 23.8464 34.7435 23.9219 34.9522 23.9964C35.1627 24.0691 35.3808 24.1371 35.6044 24.2014C35.828 24.2638 36.0516 24.315 36.2752 24.3542C36.5006 24.3942 36.7112 24.4138 36.905 24.4138H36.9497V25.8039H36.9199C36.686 25.8039 36.4447 25.7908 36.1969 25.7666C35.9482 25.7424 35.6975 25.7014 35.4441 25.6436C35.1907 25.584 34.9485 25.5039 34.7174 25.4014C34.4882 25.297 34.2907 25.1731 34.1248 25.0287L34.4342 23.7691ZM37.5497 19.5653C37.8721 19.7125 38.2019 19.869 38.5373 20.0349C38.8746 20.2017 39.1802 20.4038 39.4541 20.6423C39.7271 20.8808 39.9507 21.1715 40.1249 21.5144C40.301 21.8554 40.3895 22.2802 40.3895 22.7889C40.3895 23.1392 40.3233 23.4812 40.192 23.8138C40.0597 24.1445 39.8752 24.4436 39.6367 24.7119C39.3982 24.9803 39.1019 25.2076 38.7497 25.3939C38.3994 25.5784 37.9988 25.6995 37.5497 25.7591V24.3542C38.3491 24.1585 38.7497 23.6265 38.7497 22.7591C38.7497 22.4163 38.6379 22.133 38.4143 21.9094C38.1907 21.6858 37.9019 21.4762 37.5497 21.2796V19.5653Z" fill="white"/>
  <path d="M6.07486 9.80084H44" stroke="#FFBF00" stroke-width="0.715797"/>
  <path d="M1.24969 30.0743H38.9969" stroke="white" stroke-width="0.71617"/>
  <path d="M43.6133 29.7957V9.58098" stroke="#FFBF00" stroke-width="0.714496"/>
  <path d="M1.24875 30.432L1.24875 9.50177" stroke="white" stroke-width="0.714532"/>
  <path d="M40.5155 30.0743H43.9143" stroke="#FFBF00" stroke-width="0.709434"/>
  <path d="M1 9.78687H4.39878" stroke="white" stroke-width="0.709434"/>
</svg>